<svg width="40" height="40" viewBox="0 0 40 40" fill="none" xmlns="http://www.w3.org/2000/svg">
<g clip-path="url(#clip0_47_1326)">
<g clip-path="url(#clip1_47_1326)">
<mask id="mask0_47_1326" style="mask-type:luminance" maskUnits="userSpaceOnUse" x="0" y="0" width="40" height="40">
<path d="M40 0H0V40H40V0Z" fill="white"/>
</mask>
<g mask="url(#mask0_47_1326)">
<g filter="url(#filter0_ddi_47_1326)">
<path d="M25.4466 22.0616C29.1712 23.4716 34.1846 23.2146 37.3766 21.45L40 20L37.3766 18.55C34.1846 16.7855 29.1714 16.5286 25.4466 17.9383L22.6534 18.9956C22.636 18.9393 22.615 18.885 22.5944 18.8303L25.3092 17.6064C28.94 15.9696 32.303 12.243 33.3126 8.73814L34.1422 5.85776L31.2618 6.68734C27.757 7.69684 24.0304 11.06 22.3934 14.6907L21.2114 17.3128C21.1568 17.2863 21.1022 17.26 21.0458 17.237L22.0616 14.5533C23.4714 10.8287 23.2144 5.81534 21.45 2.62326L20 0L18.55 2.62334C16.7855 5.81544 16.5286 10.8287 17.9383 14.5534L18.9541 17.2371C18.8977 17.2601 18.8431 17.2864 18.7886 17.3129L17.6064 14.6908C15.9696 11.0601 12.243 7.69692 8.73814 6.68744L5.85776 5.85786L6.68734 8.73824C7.69684 12.243 11.06 15.9697 14.6907 17.6065L17.4055 18.8304C17.3849 18.8851 17.3638 18.9394 17.3466 18.9957L14.5533 17.9384C10.8287 16.5286 5.81534 16.7856 2.62326 18.55L0 20L2.62334 21.45C5.81544 23.2146 10.8287 23.4716 14.5534 22.0616L17.4772 20.955C17.5003 21.0054 17.5234 21.056 17.5494 21.1048L14.6908 22.3936C11.0601 24.0304 7.69694 27.757 6.68744 31.2618L5.85786 34.1422L8.73824 33.3126C12.243 32.3032 15.9697 28.94 17.6065 25.3094L18.9331 22.3668C18.9821 22.3872 19.033 22.404 19.0834 22.4218L17.9384 25.4468C16.5286 29.1714 16.7856 34.1848 18.55 37.3768L20 40.0002L21.4502 37.3768C23.2146 34.1848 23.4716 29.1716 22.0618 25.4468L20.9166 22.4216C20.967 22.404 21.018 22.3872 21.067 22.3666L22.3936 25.3092C24.0304 28.94 27.757 32.303 31.2618 33.3126L34.1422 34.1422L33.3126 31.2618C32.3032 27.757 28.94 24.0304 25.3094 22.3934L22.4506 21.1048C22.4766 21.056 22.4998 21.0054 22.5228 20.9548L25.4466 22.0616Z" fill="#FF014F"/>
</g>
</g>
</g>
</g>
<defs>
<filter id="filter0_ddi_47_1326" x="-4" y="-4" width="48" height="52.0002" filterUnits="userSpaceOnUse" color-interpolation-filters="sRGB">
<feFlood flood-opacity="0" result="BackgroundImageFix"/>
<feColorMatrix in="SourceAlpha" type="matrix" values="0 0 0 0 0 0 0 0 0 0 0 0 0 0 0 0 0 0 127 0" result="hardAlpha"/>
<feOffset dy="4"/>
<feGaussianBlur stdDeviation="2"/>
<feComposite in2="hardAlpha" operator="out"/>
<feColorMatrix type="matrix" values="0 0 0 0 0 0 0 0 0 0 0 0 0 0 0 0 0 0 0.25 0"/>
<feBlend mode="normal" in2="BackgroundImageFix" result="effect1_dropShadow_47_1326"/>
<feColorMatrix in="SourceAlpha" type="matrix" values="0 0 0 0 0 0 0 0 0 0 0 0 0 0 0 0 0 0 127 0" result="hardAlpha"/>
<feOffset dy="4"/>
<feGaussianBlur stdDeviation="2"/>
<feComposite in2="hardAlpha" operator="out"/>
<feColorMatrix type="matrix" values="0 0 0 0 1 0 0 0 0 0.00392157 0 0 0 0 0.309804 0 0 0 0.2 0"/>
<feBlend mode="normal" in2="effect1_dropShadow_47_1326" result="effect2_dropShadow_47_1326"/>
<feBlend mode="normal" in="SourceGraphic" in2="effect2_dropShadow_47_1326" result="shape"/>
<feColorMatrix in="SourceAlpha" type="matrix" values="0 0 0 0 0 0 0 0 0 0 0 0 0 0 0 0 0 0 127 0" result="hardAlpha"/>
<feOffset dy="-8"/>
<feGaussianBlur stdDeviation="2"/>
<feComposite in2="hardAlpha" operator="arithmetic" k2="-1" k3="1"/>
<feColorMatrix type="matrix" values="0 0 0 0 1 0 0 0 0 1 0 0 0 0 1 0 0 0 0.25 0"/>
<feBlend mode="normal" in2="shape" result="effect3_innerShadow_47_1326"/>
</filter>
<clipPath id="clip0_47_1326">
<rect width="40" height="40" fill="white"/>
</clipPath>
<clipPath id="clip1_47_1326">
<rect width="40" height="40" fill="white"/>
</clipPath>
</defs>
</svg>
