<svg width="32" height="30" viewBox="0 0 32 30" fill="none" xmlns="http://www.w3.org/2000/svg">
<path fill-rule="evenodd" clip-rule="evenodd" d="M15.9544 0C7.51219 0 0.6875 6.875 0.6875 15.3803C0.6875 22.1791 5.06031 27.9341 11.1266 29.9709C11.885 30.1241 12.1628 29.64 12.1628 29.2328C12.1628 28.8762 12.1378 27.6541 12.1378 26.3806C7.89094 27.2975 7.00656 24.5472 7.00656 24.5472C6.32406 22.7647 5.31281 22.3066 5.31281 22.3066C3.92281 21.3644 5.41406 21.3644 5.41406 21.3644C6.95594 21.4662 7.765 22.9431 7.765 22.9431C9.12969 25.2856 11.3287 24.6237 12.2134 24.2162C12.3397 23.2231 12.7444 22.5356 13.1741 22.1537C9.78688 21.7972 6.22313 20.4731 6.22313 14.5653C6.22313 12.8847 6.82938 11.5097 7.79 10.4403C7.63844 10.0584 7.1075 8.47937 7.94188 6.36594C7.94188 6.36594 9.23094 5.95844 12.1375 7.94469C13.3819 7.60802 14.6652 7.43675 15.9544 7.43531C17.2434 7.43531 18.5575 7.61375 19.7709 7.94469C22.6778 5.95844 23.9669 6.36594 23.9669 6.36594C24.8013 8.47937 24.27 10.0584 24.1184 10.4403C25.1044 11.5097 25.6856 12.8847 25.6856 14.5653C25.6856 20.4731 22.1219 21.7716 18.7094 22.1537C19.2656 22.6375 19.7456 23.5541 19.7456 25.0056C19.7456 27.0681 19.7206 28.7234 19.7206 29.2325C19.7206 29.64 19.9988 30.1241 20.7569 29.9712C26.8231 27.9337 31.1959 22.1791 31.1959 15.3803C31.2209 6.875 24.3713 0 15.9544 0Z" fill="white"/>
</svg>
