<svg width="30" height="30" viewBox="0 0 30 30" fill="none" xmlns="http://www.w3.org/2000/svg">
<g clip-path="url(#clip0_46_431)">
<path d="M15 6.10352e-05C6.71566 6.10352e-05 0 6.71572 0 15C0 23.2843 6.71566 30 15 30C23.2843 30 30 23.2843 30 15C29.9999 6.71572 23.2842 6.10352e-05 15 6.10352e-05ZM10.9979 22.2518H7.70455V11.6118H10.9979V22.2518ZM9.33556 10.2184C8.25997 10.2184 7.38802 9.33935 7.38802 8.25515C7.38802 7.17083 8.26009 6.29182 9.33556 6.29182C10.411 6.29182 11.283 7.17083 11.283 8.25515C11.283 9.33941 10.4111 10.2184 9.33556 10.2184ZM23.3399 22.2518H20.0625V16.6667C20.0625 15.1349 19.4807 14.2798 18.2694 14.2798C16.9511 14.2798 16.2624 15.1703 16.2624 16.6667V22.2518H13.1037V11.6118H16.2624V13.0448C16.2624 13.0448 17.2126 11.2873 19.4687 11.2873C21.7249 11.2873 23.34 12.6649 23.34 15.5147L23.3399 22.2518Z" fill="white"/>
</g>
<defs>
<clipPath id="clip0_46_431">
<rect width="30" height="30" fill="white"/>
</clipPath>
</defs>
</svg>
